<svg xmlns="http://www.w3.org/2000/svg" viewBox="0 0 1773 971">
  <path d="M 1200.541 3.031 C 1190.108 5.811, 1181.271 12.373, 1171.152 16.087 C 1161.032 19.800, 1149.832 21.237, 1139.825 25.311 C 1129.818 29.385, 1120.760 35.543, 1111.107 40.529 C 1101.454 45.515, 1091.532 50.255, 1081.907 55.229 C 1072.283 60.203, 1062.439 63.980, 1053.359 70.374 C 1044.279 76.769, 1035.770 85.456, 1027.426 93.598 C 1019.083 101.739, 1011.420 110.864, 1003.296 119.222 C 995.171 127.580, 987.218 135.565, 978.682 143.746 C 970.145 151.928, 957.483 159.324, 952.077 168.312 C 946.670 177.301, 943.250 188.515, 946.244 197.678 C 949.237 206.841, 963.635 214.151, 970.038 223.290 C 976.441 232.429, 978.048 243.635, 984.661 252.513 C 991.274 261.391, 1001.298 268.199, 1009.716 276.559 C 1018.135 284.919, 1026.574 297.771, 1035.171 302.673 C 1043.768 307.575, 1054.354 310.035, 1061.297 305.969 C 1068.241 301.904, 1070.293 287.246, 1076.831 278.279 C 1083.368 269.312, 1091.983 259.739, 1100.523 252.168 C 1109.063 244.597, 1118.920 239.104, 1128.071 232.852 C 1137.222 226.601, 1146.144 220.436, 1155.430 214.657 C 1164.715 208.878, 1174.198 203.315, 1183.783 198.179 C 1193.369 193.043, 1202.378 186.545, 1212.944 183.840 C 1223.511 181.135, 1236.474 184.441, 1247.181 181.949 C 1257.888 179.456, 1266.396 170.969, 1277.188 168.884 C 1287.981 166.800, 1300.225 169.551, 1311.935 169.443 C 1323.645 169.334, 1336.727 165.829, 1347.449 168.236 C 1358.171 170.643, 1365.691 181.126, 1376.268 183.883 C 1386.844 186.640, 1400.298 182.164, 1410.909 184.775 C 1421.520 187.386, 1430.501 194.108, 1439.933 199.549 C 1449.366 204.991, 1458.239 211.585, 1467.506 217.425 C 1476.773 223.265, 1486.203 228.507, 1495.537 234.591 C 1504.870 240.675, 1516.180 245.819, 1523.507 253.931 C 1530.834 262.044, 1533.108 274.084, 1539.498 283.266 C 1545.888 292.448, 1556.535 299.549, 1561.846 309.022 C 1567.157 318.496, 1567.660 329.936, 1571.364 340.105 C 1575.067 350.274, 1581.565 359.363, 1584.068 370.036 C 1586.570 380.710, 1584.815 393.095, 1586.378 404.145 C 1587.941 415.195, 1590.603 425.825, 1593.447 436.339 C 1596.290 446.852, 1601.779 456.202, 1603.438 467.227 C 1605.098 478.252, 1603.436 490.740, 1603.405 502.487 C 1603.373 514.234, 1603.305 525.978, 1603.250 537.710 C 1603.195 549.442, 1603.132 561.162, 1603.075 572.877 C 1603.018 584.592, 1602.958 596.297, 1602.908 608.000 C 1602.859 619.703, 1602.810 631.399, 1602.777 643.094 C 1602.745 654.789, 1602.718 666.480, 1602.711 678.172 C 1602.705 689.864, 1602.709 701.553, 1602.738 713.246 C 1602.767 724.939, 1602.812 736.632, 1602.886 748.331 C 1602.960 760.029, 1603.055 771.730, 1603.184 783.439 C 1603.313 795.147, 1603.411 806.896, 1603.660 818.583 C 1603.909 830.270, 1600.624 844.273, 1604.679 853.560 C 1608.733 862.847, 1619.348 867.891, 1627.986 874.305 C 1636.623 880.718, 1647.546 884.972, 1656.504 892.043 C 1665.461 899.114, 1672.692 910.347, 1681.731 916.732 C 1690.769 923.116, 1701.179 925.444, 1710.735 930.350 C 1720.290 935.255, 1730.202 939.677, 1739.063 946.166 C 1747.923 952.656, 1758.374 969.594, 1763.899 969.284 C 1769.423 968.974, 1770.867 954.271, 1772.209 944.304 C 1773.550 934.338, 1771.980 921.151, 1771.947 909.486 C 1771.914 897.821, 1771.996 886.044, 1772.010 874.317 C 1772.025 862.589, 1772.032 850.836, 1772.031 839.121 C 1772.031 827.405, 1772.014 815.720, 1772.006 804.025 C 1771.997 792.330, 1771.984 780.645, 1771.978 768.951 C 1771.973 757.256, 1771.971 745.559, 1771.971 733.859 C 1771.970 722.159, 1771.974 710.455, 1771.977 698.751 C 1771.981 687.047, 1771.988 675.340, 1771.994 663.633 C 1771.999 651.926, 1772.007 640.217, 1772.013 628.509 C 1772.019 616.801, 1772.026 605.092, 1772.030 593.385 C 1772.034 581.677, 1772.038 569.970, 1772.039 558.264 C 1772.039 546.559, 1772.039 534.854, 1772.034 523.152 C 1772.029 511.450, 1772.021 499.750, 1772.009 488.053 C 1771.996 476.357, 1771.981 464.663, 1771.959 452.973 C 1771.937 441.283, 1771.874 429.619, 1771.878 417.916 C 1771.882 406.212, 1771.892 394.495, 1771.982 382.752 C 1772.072 371.009, 1774.625 358.044, 1772.416 347.458 C 1770.207 336.872, 1762.033 329.379, 1758.727 319.238 C 1755.420 309.097, 1756.207 296.821, 1752.576 286.613 C 1748.945 276.404, 1741.978 267.603, 1736.940 257.988 C 1731.903 248.374, 1727.079 238.667, 1722.352 228.923 C 1717.624 219.179, 1714.209 208.896, 1708.576 199.524 C 1702.943 190.151, 1696.134 181.251, 1688.555 172.690 C 1680.975 164.128, 1671.524 156.365, 1663.099 148.157 C 1654.674 139.950, 1646.228 131.772, 1638.005 123.446 C 1629.781 115.120, 1622.017 106.424, 1613.757 98.200 C 1605.497 89.976, 1597.394 80.822, 1588.446 74.103 C 1579.498 67.384, 1569.645 63.024, 1560.070 57.885 C 1550.496 52.747, 1540.705 48.102, 1530.999 43.272 C 1521.294 38.442, 1511.645 33.477, 1501.836 28.905 C 1492.027 24.333, 1482.159 19.724, 1472.143 15.840 C 1462.127 11.956, 1452.098 8.358, 1441.740 5.600 C 1431.382 2.842, 1421.193 0.177, 1409.995 -0.708 C 1398.796 -1.594, 1386.336 0.154, 1374.550 0.287 C 1362.764 0.419, 1350.982 0.191, 1339.279 0.086 C 1327.575 -0.019, 1315.966 -0.403, 1304.328 -0.343 C 1292.691 -0.282, 1281.217 0.491, 1269.454 0.450 C 1257.691 0.408, 1245.236 -1.023, 1233.751 -0.593 C 1222.265 -0.163, 1210.974 0.251, 1200.541 3.031 Z M 320.570 2.588 C 306.217 5.217, 293.213 10.821, 279.931 16.267 C 266.650 21.713, 253.819 28.719, 240.879 35.264 C 227.940 41.808, 215.027 48.438, 202.296 55.534 C 189.564 62.630, 176.331 68.692, 164.491 77.841 C 152.652 86.990, 142.295 99.366, 131.259 110.427 C 120.222 121.488, 109.046 133.000, 98.273 144.206 C 87.500 155.411, 74.905 165.485, 66.618 177.660 C 58.331 189.835, 54.321 203.968, 48.552 217.253 C 42.782 230.538, 37.503 243.997, 32.000 257.369 C 26.498 270.741, 19.279 283.408, 15.538 297.486 C 11.798 311.564, 12.274 327.413, 9.556 341.838 C 6.838 356.264, 0.818 369.119, -0.771 384.040 C -2.360 398.961, -0.130 415.638, 0.024 431.365 C 0.178 447.092, 0.147 462.753, 0.155 478.401 C 0.163 494.049, 0.064 509.649, 0.073 525.251 C 0.081 540.854, 0.108 556.433, 0.207 572.016 C 0.306 587.599, 0.481 603.173, 0.666 618.748 C 0.852 634.323, 1.093 649.892, 1.321 665.464 C 1.550 681.036, 1.811 696.605, 2.037 712.180 C 2.264 727.754, 2.501 743.329, 2.681 758.911 C 2.861 774.494, 3.029 790.079, 3.118 805.674 C 3.206 821.270, 3.237 836.853, 3.213 852.485 C 3.190 868.117, 2.852 883.834, 2.977 899.466 C 3.102 915.097, -2.645 937.180, 3.962 946.274 C 10.570 955.368, 28.396 952.893, 42.622 954.029 C 56.848 955.165, 73.859 953.497, 89.318 953.089 C 104.777 952.682, 122.054 954.275, 135.377 951.586 C 148.701 948.896, 163.428 947.090, 169.258 936.952 C 175.088 926.814, 170.231 906.323, 170.358 890.755 C 170.486 875.188, 170.103 859.260, 170.023 843.549 C 169.943 827.839, 169.904 812.161, 169.879 796.493 C 169.854 780.825, 169.861 765.182, 169.872 749.542 C 169.882 733.901, 169.916 718.279, 169.943 702.651 C 169.971 687.024, 170.012 671.406, 170.038 655.776 C 170.064 640.147, 170.093 624.519, 170.098 608.873 C 170.104 593.227, 170.093 577.565, 170.073 561.900 C 170.053 546.234, 170.010 530.549, 169.980 514.879 C 169.949 499.209, 169.797 483.487, 169.887 467.881 C 169.978 452.276, 167.724 435.731, 170.524 421.245 C 173.324 406.760, 183.604 395.343, 186.689 380.969 C 189.775 366.596, 185.197 349.028, 189.037 335.003 C 192.876 320.978, 202.654 309.504, 209.725 296.818 C 216.797 284.133, 222.387 270.939, 231.464 258.891 C 240.541 246.842, 252.560 234.257, 264.189 224.527 C 275.817 214.797, 288.821 208.297, 301.235 200.512 C 313.648 192.726, 325.260 183.221, 338.671 177.813 C 352.082 172.404, 366.621 169.407, 381.700 168.059 C 396.778 166.711, 413.629 169.193, 429.143 169.723 C 444.658 170.254, 460.311 168.609, 474.786 171.243 C 489.262 173.877, 502.592 180.029, 515.997 185.526 C 529.402 191.022, 542.871 196.229, 555.218 204.224 C 567.565 212.218, 578.783 223.001, 590.080 233.493 C 601.377 243.985, 612.133 255.949, 622.999 267.176 C 633.865 278.403, 646.790 288.732, 655.277 300.857 C 663.765 312.983, 667.719 326.878, 673.926 339.930 C 680.132 352.983, 684.892 366.682, 692.515 379.173 C 700.138 391.664, 712.058 402.376, 719.664 414.875 C 727.270 427.374, 730.645 441.625, 738.152 454.165 C 745.659 466.705, 757.090 477.619, 764.705 490.114 C 772.321 502.609, 777.354 516.173, 783.847 529.133 C 790.341 542.092, 797.195 554.902, 803.665 567.872 C 810.134 580.841, 814.960 594.492, 822.664 606.950 C 830.369 619.408, 842.149 630.177, 849.891 642.620 C 857.634 655.063, 862.650 668.634, 869.119 681.606 C 875.588 694.578, 881.207 707.907, 888.706 720.453 C 896.205 732.998, 905.126 744.979, 914.112 756.880 C 923.098 768.781, 932.249 780.502, 942.622 791.860 C 952.996 803.217, 965.299 813.893, 976.354 825.025 C 987.409 836.157, 997.721 848.039, 1008.952 858.652 C 1020.182 869.264, 1031.428 880.567, 1043.736 888.699 C 1056.044 896.832, 1069.926 900.786, 1082.799 907.448 C 1095.672 914.109, 1107.593 923.191, 1120.975 928.671 C 1134.357 934.150, 1149.343 935.738, 1163.092 940.324 C 1176.841 944.911, 1189.072 953.146, 1203.468 956.189 C 1217.863 959.232, 1234.968 956.238, 1249.464 958.583 C 1263.960 960.929, 1275.801 968.377, 1290.444 970.263 C 1305.086 972.149, 1321.647 969.900, 1337.319 969.897 C 1352.991 969.895, 1368.838 970.298, 1384.478 970.247 C 1400.118 970.197, 1415.643 969.902, 1431.159 969.594 C 1446.674 969.286, 1462.819 969.600, 1477.573 968.400 C 1492.326 967.200, 1512.655 971.053, 1519.678 962.395 C 1526.702 953.737, 1519.815 931.905, 1519.716 916.451 C 1519.618 900.997, 1519.378 885.160, 1519.087 869.670 C 1518.795 854.179, 1519.853 837.579, 1517.969 823.509 C 1516.086 809.440, 1517.357 791.681, 1507.786 785.251 C 1498.214 778.822, 1476.224 784.969, 1460.542 784.929 C 1444.860 784.889, 1429.336 784.988, 1413.694 785.011 C 1398.051 785.034, 1382.340 785.085, 1366.689 785.067 C 1351.037 785.048, 1335.437 784.888, 1319.785 784.900 C 1304.133 784.911, 1288.113 785.890, 1272.778 785.136 C 1257.443 784.381, 1241.680 784.601, 1227.773 780.373 C 1213.865 776.144, 1202.296 766.328, 1189.333 759.765 C 1176.369 753.202, 1162.444 748.522, 1149.990 740.994 C 1137.537 733.467, 1125.518 724.837, 1114.612 714.598 C 1103.706 704.359, 1093.965 691.380, 1084.552 679.560 C 1075.139 667.741, 1066.950 655.652, 1058.132 643.679 C 1049.314 631.707, 1039.209 620.241, 1031.644 607.726 C 1024.079 595.212, 1019.250 581.547, 1012.742 568.590 C 1006.234 555.633, 1000.045 542.548, 992.595 529.984 C 985.145 517.420, 975.438 505.791, 968.040 493.206 C 960.642 480.621, 955.062 467.284, 948.207 454.474 C 941.352 441.664, 934.473 428.864, 926.912 416.347 C 919.350 403.830, 910.213 391.965, 902.837 379.371 C 895.461 366.777, 889.744 353.496, 882.656 340.782 C 875.568 328.069, 867.881 315.604, 860.309 303.091 C 852.738 290.578, 844.743 278.240, 837.226 265.706 C 829.710 253.171, 822.615 240.459, 815.209 227.885 C 807.804 215.311, 801.989 202.078, 792.794 190.262 C 783.599 178.445, 769.028 168.900, 760.039 156.984 C 751.051 145.068, 748.842 128.727, 738.863 118.766 C 728.884 108.804, 712.246 106.154, 700.165 97.213 C 688.084 88.272, 678.649 73.300, 666.375 65.118 C 654.101 56.936, 639.460 54.636, 626.522 48.121 C 613.584 41.606, 602.060 31.682, 588.747 26.031 C 575.433 20.380, 560.264 18.654, 546.643 14.214 C 533.022 9.775, 521.506 1.699, 507.019 -0.606 C 492.531 -2.910, 475.406 0.340, 459.717 0.388 C 444.028 0.437, 428.497 -0.332, 412.885 -0.314 C 397.274 -0.297, 381.432 0.009, 366.046 0.492 C 350.660 0.976, 334.922 -0.041, 320.570 2.588 Z" fill="#000000" fill-rule="evenodd"/>
</svg>